<?xml version="1.0" standalone="no"?>
<!DOCTYPE svg PUBLIC "-//W3C//DTD SVG 20010904//EN"
 "http://www.w3.org/TR/2001/REC-SVG-20010904/DTD/svg10.dtd">
<svg version="1.0" xmlns="http://www.w3.org/2000/svg"
 width="508.000000pt" height="127.000000pt" viewBox="0 0 508.000000 127.000000"
 preserveAspectRatio="xMidYMid meet">

<g transform="translate(0.000000,127.000000) scale(0.100000,-0.100000)"
fill="#000000" stroke="none">
<path d="M585 1100 c-223 -35 -378 -215 -378 -440 0 -275 233 -476 512 -441
196 25 350 177 382 377 38 236 -131 465 -371 503 -72 12 -73 12 -145 1z m200
-37 c244 -76 367 -348 261 -578 -34 -76 -80 -130 -149 -176 -76 -50 -150 -72
-246 -71 -384 3 -569 468 -290 727 121 112 269 146 424 98z"/>
<path d="M596 1058 c-132 -18 -252 -106 -310 -228 -29 -60 -31 -73 -31 -170 0
-97 2 -110 31 -170 77 -162 250 -254 432 -229 79 11 123 29 188 79 120 90 181
252 150 398 -45 215 -240 351 -460 320z m94 -193 c0 -8 14 -22 31 -30 24 -13
33 -14 45 -4 21 18 67 -27 60 -58 -8 -29 10 -73 29 -73 11 0 15 -11 15 -40 0
-32 -4 -40 -18 -40 -24 0 -46 -58 -30 -77 17 -21 -35 -72 -56 -54 -12 10 -21
9 -45 -4 -17 -8 -31 -22 -31 -30 0 -10 -11 -15 -35 -15 -27 0 -35 4 -35 18 0
24 -58 46 -77 30 -20 -17 -72 35 -55 55 16 18 -5 74 -30 80 -26 7 -26 77 0 77
24 0 46 58 30 77 -17 21 35 72 56 54 12 -10 21 -9 45 4 17 8 31 22 31 30 0 10
11 15 35 15 24 0 35 -5 35 -15z"/>
<path d="M630 855 c0 -21 -74 -57 -88 -43 -16 16 -44 -10 -37 -33 9 -27 -15
-87 -37 -92 -24 -7 -24 -47 0 -54 22 -5 46 -65 37 -92 -7 -23 21 -49 36 -34
16 16 89 -17 89 -39 0 -12 8 -18 25 -18 15 0 25 6 25 15 0 21 74 57 88 43 16
-16 44 10 37 33 -9 29 16 89 37 89 13 0 18 8 18 30 0 22 -5 30 -18 30 -21 0
-44 55 -36 86 7 26 -21 53 -38 36 -14 -14 -88 22 -88 43 0 9 -10 15 -25 15
-15 0 -25 -6 -25 -15z m27 -77 c-3 -8 -6 -5 -6 6 -1 11 2 17 5 13 3 -3 4 -12
1 -19z m-72 -19 c11 -17 -1 -21 -15 -4 -8 9 -8 15 -2 15 6 0 14 -5 17 -11z
m165 2 c0 -5 -7 -12 -16 -15 -14 -5 -15 -4 -4 9 14 17 20 19 20 6z m-45 -45
c26 -26 26 -62 -1 -103 -8 -12 -14 -31 -14 -42 0 -14 -9 -23 -26 -27 -29 -7
-44 7 -44 43 0 12 -5 25 -11 28 -22 14 -29 55 -14 85 24 47 72 54 110 16z
m-148 -42 c-3 -3 -12 -4 -19 -1 -8 3 -5 6 6 6 11 1 17 -2 13 -5z m220 0 c-3
-3 -12 -4 -19 -1 -8 3 -5 6 6 6 11 1 17 -2 13 -5z"/>
<path d="M629 716 c-30 -14 -38 -66 -14 -90 36 -36 95 -9 95 43 0 44 -41 67
-81 47z"/>
<path d="M630 581 c0 -21 26 -36 35 -21 4 6 -1 10 -9 10 -9 0 -16 5 -16 11 0
6 9 9 20 6 11 -3 20 -1 20 4 0 5 -11 9 -25 9 -18 0 -25 -5 -25 -19z"/>
<path d="M2177 856 c-50 -19 -67 -34 -88 -81 -21 -45 -24 -111 -9 -166 22 -77
100 -119 195 -103 l50 9 3 42 c3 43 3 43 -23 33 -71 -27 -128 0 -141 66 -17
90 37 149 116 127 35 -9 39 -8 49 14 23 50 15 58 -66 68 -30 3 -63 0 -86 -9z"/>
<path d="M2546 860 c-87 -28 -128 -136 -96 -252 14 -48 67 -94 119 -103 138
-23 223 64 208 212 -10 92 -59 141 -148 148 -30 3 -67 0 -83 -5z m113 -96 c32
-40 29 -126 -4 -159 -65 -66 -139 11 -115 120 15 68 80 89 119 39z"/>
<path d="M3442 860 c-45 -10 -70 -36 -78 -77 -11 -56 14 -95 83 -129 42 -21
58 -35 58 -49 0 -26 -58 -32 -109 -11 l-36 15 0 -44 c0 -39 3 -44 31 -54 70
-24 161 -5 193 40 18 26 21 90 6 120 -6 10 -34 31 -63 45 -67 34 -77 42 -70
60 6 16 59 19 97 5 22 -9 26 -7 35 21 16 45 16 45 -39 57 -57 12 -61 12 -108
1z"/>
<path d="M1340 685 l0 -175 105 0 105 0 0 35 0 35 -55 0 -55 0 0 35 0 35 50 0
50 0 0 40 0 40 -50 0 c-49 0 -50 1 -50 30 0 30 1 30 55 30 l55 0 0 35 0 35
-105 0 -105 0 0 -175z"/>
<path d="M1745 848 c-15 -43 -105 -327 -105 -332 0 -3 22 -6 49 -6 47 0 50 2
56 30 6 29 8 30 70 30 61 0 63 0 69 -30 5 -29 8 -30 57 -30 37 0 50 4 46 13
-2 6 -28 85 -56 175 l-52 162 -65 0 c-43 0 -66 -4 -69 -12z m91 -119 c20 -76
19 -79 -22 -79 -36 0 -36 1 -30 32 12 60 27 110 32 105 3 -3 12 -29 20 -58z"/>
<path d="M2900 685 l0 -175 40 0 40 0 0 120 c0 66 4 120 8 120 4 0 34 -54 67
-120 l59 -120 63 0 63 0 0 175 0 175 -40 0 -39 0 -3 -122 -3 -123 -63 123 -62
122 -65 0 -65 0 0 -175z"/>
<path d="M3720 730 c0 -144 8 -173 57 -206 41 -27 142 -26 180 2 52 38 63 76
63 212 l0 122 -44 0 -44 0 -4 -124 c-4 -136 -12 -156 -59 -156 -48 0 -59 29
-59 162 l0 118 -45 0 -45 0 0 -130z"/>
<path d="M4150 685 l0 -175 115 0 115 0 0 35 0 34 -67 3 -68 3 -3 138 -3 137
-44 0 -45 0 0 -175z"/>
<path d="M4460 826 c0 -34 1 -35 43 -38 l42 -3 3 -137 3 -138 44 0 45 0 0 140
0 140 45 0 c45 0 45 0 45 35 l0 35 -135 0 -135 0 0 -34z"/>
<path d="M1340 310 c0 -7 572 -10 1695 -10 1123 0 1695 3 1695 10 0 7 -572 10
-1695 10 -1123 0 -1695 -3 -1695 -10z"/>
</g>
</svg>
