<svg xmlns="http://www.w3.org/2000/svg" version="1.1" xmlns:xlink="http://www.w3.org/1999/xlink" xmlns:svgjs="http://svgjs.dev/svgjs" width="2000" height="560" preserveAspectRatio="none" viewBox="0 0 2000 560"><g mask="url(&quot;#SvgjsMask1004&quot;)" fill="none"><rect width="2000" height="560" x="0" y="0" fill="#0e2a47"></rect><path d="M17.97 -17.76L82.92 19.74L82.92 94.74L17.97 132.24L-46.98 94.74L-46.98 19.74zM147.88 207.24L212.83 244.74L212.83 319.74L147.88 357.24L82.92 319.74L82.92 244.74zM212.83 544.74L277.78 582.24L277.78 657.24L212.83 694.74L147.88 657.24L147.88 582.24zM342.74 94.74L407.69 132.24L407.69 207.24L342.74 244.74L277.78 207.24L277.78 132.24zM342.74 544.74L407.69 582.24L407.69 657.24L342.74 694.74L277.78 657.24L277.78 582.24zM537.6 432.24L602.55 469.74L602.55 544.74L537.6 582.24L472.65 544.74L472.65 469.74zM732.46 94.74L797.42 132.24L797.42 207.24L732.46 244.74L667.51 207.24L667.51 132.24zM732.46 319.74L797.42 357.24L797.42 432.24L732.46 469.74L667.51 432.24L667.51 357.24zM732.46 544.74L797.42 582.24L797.42 657.24L732.46 694.74L667.51 657.24L667.51 582.24zM862.37 94.74L927.32 132.24L927.32 207.24L862.37 244.74L797.41 207.24L797.41 132.24zM862.37 319.74L927.32 357.24L927.32 432.24L862.37 469.74L797.41 432.24L797.41 357.24zM862.37 544.74L927.32 582.24L927.32 657.24L862.37 694.74L797.41 657.24L797.41 582.24zM992.28 94.74L1057.23 132.24L1057.23 207.24L992.28 244.74L927.32 207.24L927.32 132.24zM927.32 207.24L992.28 244.74L992.28 319.74L927.32 357.24L862.37 319.74L862.37 244.74zM927.32 432.24L992.28 469.74L992.28 544.74L927.32 582.24L862.37 544.74L862.37 469.74zM1057.23 -17.76L1122.18 19.74L1122.18 94.74L1057.23 132.24L992.28 94.74L992.28 19.74zM1122.18 94.74L1187.14 132.24L1187.14 207.24L1122.18 244.74L1057.23 207.24L1057.23 132.24zM1057.23 207.24L1122.18 244.74L1122.18 319.74L1057.23 357.24L992.28 319.74L992.28 244.74zM1122.18 319.74L1187.14 357.24L1187.14 432.24L1122.18 469.74L1057.23 432.24L1057.23 357.24zM1122.18 544.74L1187.14 582.24L1187.14 657.24L1122.18 694.74L1057.23 657.24L1057.23 582.24zM1252.09 319.74L1317.04 357.24L1317.04 432.24L1252.09 469.74L1187.14 432.24L1187.14 357.24zM1317.05 432.24L1382 469.74L1382 544.74L1317.05 582.24L1252.09 544.74L1252.09 469.74zM1446.95 -17.76L1511.91 19.74L1511.91 94.74L1446.95 132.24L1382 94.74L1382 19.74zM1446.95 207.24L1511.91 244.74L1511.91 319.74L1446.95 357.24L1382 319.74L1382 244.74zM1641.81 94.74L1706.77 132.24L1706.77 207.24L1641.81 244.74L1576.86 207.24L1576.86 132.24zM1641.81 319.74L1706.77 357.24L1706.77 432.24L1641.81 469.74L1576.86 432.24L1576.86 357.24zM1576.86 432.24L1641.81 469.74L1641.81 544.74L1576.86 582.24L1511.91 544.74L1511.91 469.74zM1771.72 94.74L1836.67 132.24L1836.67 207.24L1771.72 244.74L1706.77 207.24L1706.77 132.24zM1771.72 319.74L1836.67 357.24L1836.67 432.24L1771.72 469.74L1706.77 432.24L1706.77 357.24zM1901.63 544.74L1966.58 582.24L1966.58 657.24L1901.63 694.74L1836.67 657.24L1836.67 582.24zM1966.58 -17.76L2031.54 19.74L2031.54 94.74L1966.58 132.24L1901.63 94.74L1901.63 19.74zM1966.58 432.24L2031.54 469.74L2031.54 544.74L1966.58 582.24L1901.63 544.74L1901.63 469.74z" stroke="#03305d" stroke-width="2"></path><path d="M10.47 -17.76 a7.5 7.5 0 1 0 15 0 a7.5 7.5 0 1 0 -15 0zM75.42 19.74 a7.5 7.5 0 1 0 15 0 a7.5 7.5 0 1 0 -15 0zM75.42 94.74 a7.5 7.5 0 1 0 15 0 a7.5 7.5 0 1 0 -15 0zM10.47 132.24 a7.5 7.5 0 1 0 15 0 a7.5 7.5 0 1 0 -15 0zM-54.48 94.74 a7.5 7.5 0 1 0 15 0 a7.5 7.5 0 1 0 -15 0zM-54.48 19.74 a7.5 7.5 0 1 0 15 0 a7.5 7.5 0 1 0 -15 0zM140.38 207.24 a7.5 7.5 0 1 0 15 0 a7.5 7.5 0 1 0 -15 0zM205.33 244.74 a7.5 7.5 0 1 0 15 0 a7.5 7.5 0 1 0 -15 0zM205.33 319.74 a7.5 7.5 0 1 0 15 0 a7.5 7.5 0 1 0 -15 0zM140.38 357.24 a7.5 7.5 0 1 0 15 0 a7.5 7.5 0 1 0 -15 0zM75.42 319.74 a7.5 7.5 0 1 0 15 0 a7.5 7.5 0 1 0 -15 0zM75.42 244.74 a7.5 7.5 0 1 0 15 0 a7.5 7.5 0 1 0 -15 0zM205.33 544.74 a7.5 7.5 0 1 0 15 0 a7.5 7.5 0 1 0 -15 0zM270.28 582.24 a7.5 7.5 0 1 0 15 0 a7.5 7.5 0 1 0 -15 0zM270.28 657.24 a7.5 7.5 0 1 0 15 0 a7.5 7.5 0 1 0 -15 0zM205.33 694.74 a7.5 7.5 0 1 0 15 0 a7.5 7.5 0 1 0 -15 0zM140.38 657.24 a7.5 7.5 0 1 0 15 0 a7.5 7.5 0 1 0 -15 0zM140.38 582.24 a7.5 7.5 0 1 0 15 0 a7.5 7.5 0 1 0 -15 0zM335.24 94.74 a7.5 7.5 0 1 0 15 0 a7.5 7.5 0 1 0 -15 0zM400.19 132.24 a7.5 7.5 0 1 0 15 0 a7.5 7.5 0 1 0 -15 0zM400.19 207.24 a7.5 7.5 0 1 0 15 0 a7.5 7.5 0 1 0 -15 0zM335.24 244.74 a7.5 7.5 0 1 0 15 0 a7.5 7.5 0 1 0 -15 0zM270.28 207.24 a7.5 7.5 0 1 0 15 0 a7.5 7.5 0 1 0 -15 0zM270.28 132.24 a7.5 7.5 0 1 0 15 0 a7.5 7.5 0 1 0 -15 0zM335.24 544.74 a7.5 7.5 0 1 0 15 0 a7.5 7.5 0 1 0 -15 0zM400.19 582.24 a7.5 7.5 0 1 0 15 0 a7.5 7.5 0 1 0 -15 0zM400.19 657.24 a7.5 7.5 0 1 0 15 0 a7.5 7.5 0 1 0 -15 0zM335.24 694.74 a7.5 7.5 0 1 0 15 0 a7.5 7.5 0 1 0 -15 0zM530.1 432.24 a7.5 7.5 0 1 0 15 0 a7.5 7.5 0 1 0 -15 0zM595.05 469.74 a7.5 7.5 0 1 0 15 0 a7.5 7.5 0 1 0 -15 0zM595.05 544.74 a7.5 7.5 0 1 0 15 0 a7.5 7.5 0 1 0 -15 0zM530.1 582.24 a7.5 7.5 0 1 0 15 0 a7.5 7.5 0 1 0 -15 0zM465.15 544.74 a7.5 7.5 0 1 0 15 0 a7.5 7.5 0 1 0 -15 0zM465.15 469.74 a7.5 7.5 0 1 0 15 0 a7.5 7.5 0 1 0 -15 0zM724.96 94.74 a7.5 7.5 0 1 0 15 0 a7.5 7.5 0 1 0 -15 0zM789.92 132.24 a7.5 7.5 0 1 0 15 0 a7.5 7.5 0 1 0 -15 0zM789.92 207.24 a7.5 7.5 0 1 0 15 0 a7.5 7.5 0 1 0 -15 0zM724.96 244.74 a7.5 7.5 0 1 0 15 0 a7.5 7.5 0 1 0 -15 0zM660.01 207.24 a7.5 7.5 0 1 0 15 0 a7.5 7.5 0 1 0 -15 0zM660.01 132.24 a7.5 7.5 0 1 0 15 0 a7.5 7.5 0 1 0 -15 0zM724.96 319.74 a7.5 7.5 0 1 0 15 0 a7.5 7.5 0 1 0 -15 0zM789.92 357.24 a7.5 7.5 0 1 0 15 0 a7.5 7.5 0 1 0 -15 0zM789.92 432.24 a7.5 7.5 0 1 0 15 0 a7.5 7.5 0 1 0 -15 0zM724.96 469.74 a7.5 7.5 0 1 0 15 0 a7.5 7.5 0 1 0 -15 0zM660.01 432.24 a7.5 7.5 0 1 0 15 0 a7.5 7.5 0 1 0 -15 0zM660.01 357.24 a7.5 7.5 0 1 0 15 0 a7.5 7.5 0 1 0 -15 0zM724.96 544.74 a7.5 7.5 0 1 0 15 0 a7.5 7.5 0 1 0 -15 0zM789.92 582.24 a7.5 7.5 0 1 0 15 0 a7.5 7.5 0 1 0 -15 0zM789.92 657.24 a7.5 7.5 0 1 0 15 0 a7.5 7.5 0 1 0 -15 0zM724.96 694.74 a7.5 7.5 0 1 0 15 0 a7.5 7.5 0 1 0 -15 0zM660.01 657.24 a7.5 7.5 0 1 0 15 0 a7.5 7.5 0 1 0 -15 0zM660.01 582.24 a7.5 7.5 0 1 0 15 0 a7.5 7.5 0 1 0 -15 0zM854.87 94.74 a7.5 7.5 0 1 0 15 0 a7.5 7.5 0 1 0 -15 0zM919.82 132.24 a7.5 7.5 0 1 0 15 0 a7.5 7.5 0 1 0 -15 0zM919.82 207.24 a7.5 7.5 0 1 0 15 0 a7.5 7.5 0 1 0 -15 0zM854.87 244.74 a7.5 7.5 0 1 0 15 0 a7.5 7.5 0 1 0 -15 0zM789.91 207.24 a7.5 7.5 0 1 0 15 0 a7.5 7.5 0 1 0 -15 0zM789.91 132.24 a7.5 7.5 0 1 0 15 0 a7.5 7.5 0 1 0 -15 0zM854.87 319.74 a7.5 7.5 0 1 0 15 0 a7.5 7.5 0 1 0 -15 0zM919.82 357.24 a7.5 7.5 0 1 0 15 0 a7.5 7.5 0 1 0 -15 0zM919.82 432.24 a7.5 7.5 0 1 0 15 0 a7.5 7.5 0 1 0 -15 0zM854.87 469.74 a7.5 7.5 0 1 0 15 0 a7.5 7.5 0 1 0 -15 0zM789.91 432.24 a7.5 7.5 0 1 0 15 0 a7.5 7.5 0 1 0 -15 0zM789.91 357.24 a7.5 7.5 0 1 0 15 0 a7.5 7.5 0 1 0 -15 0zM854.87 544.74 a7.5 7.5 0 1 0 15 0 a7.5 7.5 0 1 0 -15 0zM919.82 582.24 a7.5 7.5 0 1 0 15 0 a7.5 7.5 0 1 0 -15 0zM919.82 657.24 a7.5 7.5 0 1 0 15 0 a7.5 7.5 0 1 0 -15 0zM854.87 694.74 a7.5 7.5 0 1 0 15 0 a7.5 7.5 0 1 0 -15 0zM789.91 657.24 a7.5 7.5 0 1 0 15 0 a7.5 7.5 0 1 0 -15 0zM789.91 582.24 a7.5 7.5 0 1 0 15 0 a7.5 7.5 0 1 0 -15 0zM984.78 94.74 a7.5 7.5 0 1 0 15 0 a7.5 7.5 0 1 0 -15 0zM1049.73 132.24 a7.5 7.5 0 1 0 15 0 a7.5 7.5 0 1 0 -15 0zM1049.73 207.24 a7.5 7.5 0 1 0 15 0 a7.5 7.5 0 1 0 -15 0zM984.78 244.74 a7.5 7.5 0 1 0 15 0 a7.5 7.5 0 1 0 -15 0zM984.78 319.74 a7.5 7.5 0 1 0 15 0 a7.5 7.5 0 1 0 -15 0zM984.78 469.74 a7.5 7.5 0 1 0 15 0 a7.5 7.5 0 1 0 -15 0zM984.78 544.74 a7.5 7.5 0 1 0 15 0 a7.5 7.5 0 1 0 -15 0zM1049.73 -17.76 a7.5 7.5 0 1 0 15 0 a7.5 7.5 0 1 0 -15 0zM1114.68 19.74 a7.5 7.5 0 1 0 15 0 a7.5 7.5 0 1 0 -15 0zM1114.68 94.74 a7.5 7.5 0 1 0 15 0 a7.5 7.5 0 1 0 -15 0zM984.78 19.74 a7.5 7.5 0 1 0 15 0 a7.5 7.5 0 1 0 -15 0zM1179.64 132.24 a7.5 7.5 0 1 0 15 0 a7.5 7.5 0 1 0 -15 0zM1179.64 207.24 a7.5 7.5 0 1 0 15 0 a7.5 7.5 0 1 0 -15 0zM1114.68 244.74 a7.5 7.5 0 1 0 15 0 a7.5 7.5 0 1 0 -15 0zM1114.68 319.74 a7.5 7.5 0 1 0 15 0 a7.5 7.5 0 1 0 -15 0zM1049.73 357.24 a7.5 7.5 0 1 0 15 0 a7.5 7.5 0 1 0 -15 0zM1179.64 357.24 a7.5 7.5 0 1 0 15 0 a7.5 7.5 0 1 0 -15 0zM1179.64 432.24 a7.5 7.5 0 1 0 15 0 a7.5 7.5 0 1 0 -15 0zM1114.68 469.74 a7.5 7.5 0 1 0 15 0 a7.5 7.5 0 1 0 -15 0zM1049.73 432.24 a7.5 7.5 0 1 0 15 0 a7.5 7.5 0 1 0 -15 0zM1114.68 544.74 a7.5 7.5 0 1 0 15 0 a7.5 7.5 0 1 0 -15 0zM1179.64 582.24 a7.5 7.5 0 1 0 15 0 a7.5 7.5 0 1 0 -15 0zM1179.64 657.24 a7.5 7.5 0 1 0 15 0 a7.5 7.5 0 1 0 -15 0zM1114.68 694.74 a7.5 7.5 0 1 0 15 0 a7.5 7.5 0 1 0 -15 0zM1049.73 657.24 a7.5 7.5 0 1 0 15 0 a7.5 7.5 0 1 0 -15 0zM1049.73 582.24 a7.5 7.5 0 1 0 15 0 a7.5 7.5 0 1 0 -15 0zM1244.59 319.74 a7.5 7.5 0 1 0 15 0 a7.5 7.5 0 1 0 -15 0zM1309.54 357.24 a7.5 7.5 0 1 0 15 0 a7.5 7.5 0 1 0 -15 0zM1309.54 432.24 a7.5 7.5 0 1 0 15 0 a7.5 7.5 0 1 0 -15 0zM1244.59 469.74 a7.5 7.5 0 1 0 15 0 a7.5 7.5 0 1 0 -15 0zM1309.55 432.24 a7.5 7.5 0 1 0 15 0 a7.5 7.5 0 1 0 -15 0zM1374.5 469.74 a7.5 7.5 0 1 0 15 0 a7.5 7.5 0 1 0 -15 0zM1374.5 544.74 a7.5 7.5 0 1 0 15 0 a7.5 7.5 0 1 0 -15 0zM1309.55 582.24 a7.5 7.5 0 1 0 15 0 a7.5 7.5 0 1 0 -15 0zM1244.59 544.74 a7.5 7.5 0 1 0 15 0 a7.5 7.5 0 1 0 -15 0zM1439.45 -17.76 a7.5 7.5 0 1 0 15 0 a7.5 7.5 0 1 0 -15 0zM1504.41 19.74 a7.5 7.5 0 1 0 15 0 a7.5 7.5 0 1 0 -15 0zM1504.41 94.74 a7.5 7.5 0 1 0 15 0 a7.5 7.5 0 1 0 -15 0zM1439.45 132.24 a7.5 7.5 0 1 0 15 0 a7.5 7.5 0 1 0 -15 0zM1374.5 94.74 a7.5 7.5 0 1 0 15 0 a7.5 7.5 0 1 0 -15 0zM1374.5 19.74 a7.5 7.5 0 1 0 15 0 a7.5 7.5 0 1 0 -15 0zM1439.45 207.24 a7.5 7.5 0 1 0 15 0 a7.5 7.5 0 1 0 -15 0zM1504.41 244.74 a7.5 7.5 0 1 0 15 0 a7.5 7.5 0 1 0 -15 0zM1504.41 319.74 a7.5 7.5 0 1 0 15 0 a7.5 7.5 0 1 0 -15 0zM1439.45 357.24 a7.5 7.5 0 1 0 15 0 a7.5 7.5 0 1 0 -15 0zM1374.5 319.74 a7.5 7.5 0 1 0 15 0 a7.5 7.5 0 1 0 -15 0zM1374.5 244.74 a7.5 7.5 0 1 0 15 0 a7.5 7.5 0 1 0 -15 0zM1634.31 94.74 a7.5 7.5 0 1 0 15 0 a7.5 7.5 0 1 0 -15 0zM1699.27 132.24 a7.5 7.5 0 1 0 15 0 a7.5 7.5 0 1 0 -15 0zM1699.27 207.24 a7.5 7.5 0 1 0 15 0 a7.5 7.5 0 1 0 -15 0zM1634.31 244.74 a7.5 7.5 0 1 0 15 0 a7.5 7.5 0 1 0 -15 0zM1569.36 207.24 a7.5 7.5 0 1 0 15 0 a7.5 7.5 0 1 0 -15 0zM1569.36 132.24 a7.5 7.5 0 1 0 15 0 a7.5 7.5 0 1 0 -15 0zM1634.31 319.74 a7.5 7.5 0 1 0 15 0 a7.5 7.5 0 1 0 -15 0zM1699.27 357.24 a7.5 7.5 0 1 0 15 0 a7.5 7.5 0 1 0 -15 0zM1699.27 432.24 a7.5 7.5 0 1 0 15 0 a7.5 7.5 0 1 0 -15 0zM1634.31 469.74 a7.5 7.5 0 1 0 15 0 a7.5 7.5 0 1 0 -15 0zM1569.36 432.24 a7.5 7.5 0 1 0 15 0 a7.5 7.5 0 1 0 -15 0zM1569.36 357.24 a7.5 7.5 0 1 0 15 0 a7.5 7.5 0 1 0 -15 0zM1634.31 544.74 a7.5 7.5 0 1 0 15 0 a7.5 7.5 0 1 0 -15 0zM1569.36 582.24 a7.5 7.5 0 1 0 15 0 a7.5 7.5 0 1 0 -15 0zM1504.41 544.74 a7.5 7.5 0 1 0 15 0 a7.5 7.5 0 1 0 -15 0zM1504.41 469.74 a7.5 7.5 0 1 0 15 0 a7.5 7.5 0 1 0 -15 0zM1764.22 94.74 a7.5 7.5 0 1 0 15 0 a7.5 7.5 0 1 0 -15 0zM1829.17 132.24 a7.5 7.5 0 1 0 15 0 a7.5 7.5 0 1 0 -15 0zM1829.17 207.24 a7.5 7.5 0 1 0 15 0 a7.5 7.5 0 1 0 -15 0zM1764.22 244.74 a7.5 7.5 0 1 0 15 0 a7.5 7.5 0 1 0 -15 0zM1764.22 319.74 a7.5 7.5 0 1 0 15 0 a7.5 7.5 0 1 0 -15 0zM1829.17 357.24 a7.5 7.5 0 1 0 15 0 a7.5 7.5 0 1 0 -15 0zM1829.17 432.24 a7.5 7.5 0 1 0 15 0 a7.5 7.5 0 1 0 -15 0zM1764.22 469.74 a7.5 7.5 0 1 0 15 0 a7.5 7.5 0 1 0 -15 0zM1894.13 544.74 a7.5 7.5 0 1 0 15 0 a7.5 7.5 0 1 0 -15 0zM1959.08 582.24 a7.5 7.5 0 1 0 15 0 a7.5 7.5 0 1 0 -15 0zM1959.08 657.24 a7.5 7.5 0 1 0 15 0 a7.5 7.5 0 1 0 -15 0zM1894.13 694.74 a7.5 7.5 0 1 0 15 0 a7.5 7.5 0 1 0 -15 0zM1829.17 657.24 a7.5 7.5 0 1 0 15 0 a7.5 7.5 0 1 0 -15 0zM1829.17 582.24 a7.5 7.5 0 1 0 15 0 a7.5 7.5 0 1 0 -15 0zM1959.08 -17.76 a7.5 7.5 0 1 0 15 0 a7.5 7.5 0 1 0 -15 0zM2024.04 19.74 a7.5 7.5 0 1 0 15 0 a7.5 7.5 0 1 0 -15 0zM2024.04 94.74 a7.5 7.5 0 1 0 15 0 a7.5 7.5 0 1 0 -15 0zM1959.08 132.24 a7.5 7.5 0 1 0 15 0 a7.5 7.5 0 1 0 -15 0zM1894.13 94.74 a7.5 7.5 0 1 0 15 0 a7.5 7.5 0 1 0 -15 0zM1894.13 19.74 a7.5 7.5 0 1 0 15 0 a7.5 7.5 0 1 0 -15 0zM1959.08 432.24 a7.5 7.5 0 1 0 15 0 a7.5 7.5 0 1 0 -15 0zM2024.04 469.74 a7.5 7.5 0 1 0 15 0 a7.5 7.5 0 1 0 -15 0zM2024.04 544.74 a7.5 7.5 0 1 0 15 0 a7.5 7.5 0 1 0 -15 0zM1894.13 469.74 a7.5 7.5 0 1 0 15 0 a7.5 7.5 0 1 0 -15 0z" fill="#03305d"></path><path d="M34.92 -36.32L78.22 -11.32L78.22 38.68L34.92 63.68L-8.38 38.68L-8.38 -11.32zM34.92 113.68L78.22 138.68L78.22 188.68L34.92 213.68L-8.38 188.68L-8.38 138.68zM78.22 188.68L121.53 213.68L121.53 263.68L78.22 288.68L34.92 263.68L34.92 213.68zM34.92 413.68L78.22 438.68L78.22 488.68L34.92 513.68L-8.38 488.68L-8.38 438.68zM251.43 38.68L294.74 63.68L294.74 113.68L251.43 138.68L208.13 113.68L208.13 63.68zM251.43 188.68L294.74 213.68L294.74 263.68L251.43 288.68L208.13 263.68L208.13 213.68zM208.13 263.68L251.43 288.68L251.43 338.68L208.13 363.68L164.83 338.68L164.83 288.68zM208.13 413.68L251.43 438.68L251.43 488.68L208.13 513.68L164.83 488.68L164.83 438.68zM294.74 113.68L338.04 138.68L338.04 188.68L294.74 213.68L251.43 188.68L251.43 138.68zM294.74 263.68L338.04 288.68L338.04 338.68L294.74 363.68L251.43 338.68L251.43 288.68zM338.04 338.68L381.34 363.68L381.34 413.68L338.04 438.68L294.74 413.68L294.74 363.68zM381.34 113.68L424.64 138.68L424.64 188.68L381.34 213.68L338.04 188.68L338.04 138.68zM424.64 338.68L467.95 363.68L467.95 413.68L424.64 438.68L381.34 413.68L381.34 363.68zM424.64 488.68L467.95 513.68L467.95 563.68L424.64 588.68L381.34 563.68L381.34 513.68zM467.95 -36.32L511.25 -11.32L511.25 38.68L467.95 63.68L424.64 38.68L424.64 -11.32zM511.25 38.68L554.55 63.68L554.55 113.68L511.25 138.68L467.95 113.68L467.95 63.68zM511.25 188.68L554.55 213.68L554.55 263.68L511.25 288.68L467.95 263.68L467.95 213.68zM511.25 488.68L554.55 513.68L554.55 563.68L511.25 588.68L467.95 563.68L467.95 513.68zM554.55 263.68L597.85 288.68L597.85 338.68L554.55 363.68L511.25 338.68L511.25 288.68zM597.85 488.68L641.15 513.68L641.15 563.68L597.85 588.68L554.55 563.68L554.55 513.68zM641.15 -36.32L684.46 -11.32L684.46 38.68L641.15 63.68L597.85 38.68L597.85 -11.32zM684.46 38.68L727.76 63.68L727.76 113.68L684.46 138.68L641.15 113.68L641.15 63.68zM641.15 263.68L684.46 288.68L684.46 338.68L641.15 363.68L597.85 338.68L597.85 288.68zM771.06 188.68L814.37 213.68L814.37 263.68L771.06 288.68L727.76 263.68L727.76 213.68zM727.76 413.68L771.06 438.68L771.06 488.68L727.76 513.68L684.46 488.68L684.46 438.68zM771.06 488.68L814.37 513.68L814.37 563.68L771.06 588.68L727.76 563.68L727.76 513.68zM857.67 188.68L900.97 213.68L900.97 263.68L857.67 288.68L814.37 263.68L814.37 213.68zM900.97 -36.32L944.27 -11.32L944.27 38.68L900.97 63.68L857.67 38.68L857.67 -11.32zM900.97 263.68L944.27 288.68L944.27 338.68L900.97 363.68L857.67 338.68L857.67 288.68zM900.97 413.68L944.27 438.68L944.27 488.68L900.97 513.68L857.67 488.68L857.67 438.68zM944.27 488.68L987.58 513.68L987.58 563.68L944.27 588.68L900.97 563.68L900.97 513.68zM987.58 -36.32L1030.88 -11.32L1030.88 38.68L987.58 63.68L944.27 38.68L944.27 -11.32zM987.58 263.68L1030.88 288.68L1030.88 338.68L987.58 363.68L944.27 338.68L944.27 288.68zM1030.88 488.68L1074.18 513.68L1074.18 563.68L1030.88 588.68L987.58 563.68L987.58 513.68zM1074.18 -36.32L1117.48 -11.32L1117.48 38.68L1074.18 63.68L1030.88 38.68L1030.88 -11.32zM1117.48 38.68L1160.79 63.68L1160.79 113.68L1117.48 138.68L1074.18 113.68L1074.18 63.68zM1204.09 38.68L1247.39 63.68L1247.39 113.68L1204.09 138.68L1160.79 113.68L1160.79 63.68zM1204.09 188.68L1247.39 213.68L1247.39 263.68L1204.09 288.68L1160.79 263.68L1160.79 213.68zM1160.79 263.68L1204.09 288.68L1204.09 338.68L1160.79 363.68L1117.48 338.68L1117.48 288.68zM1334 -36.32L1377.3 -11.32L1377.3 38.68L1334 63.68L1290.69 38.68L1290.69 -11.32zM1334 113.68L1377.3 138.68L1377.3 188.68L1334 213.68L1290.69 188.68L1290.69 138.68zM1377.3 188.68L1420.6 213.68L1420.6 263.68L1377.3 288.68L1334 263.68L1334 213.68zM1334 263.68L1377.3 288.68L1377.3 338.68L1334 363.68L1290.69 338.68L1290.69 288.68zM1463.9 38.68L1507.21 63.68L1507.21 113.68L1463.9 138.68L1420.6 113.68L1420.6 63.68zM1463.9 188.68L1507.21 213.68L1507.21 263.68L1463.9 288.68L1420.6 263.68L1420.6 213.68zM1420.6 413.68L1463.9 438.68L1463.9 488.68L1420.6 513.68L1377.3 488.68L1377.3 438.68zM1507.21 -36.32L1550.51 -11.32L1550.51 38.68L1507.21 63.68L1463.9 38.68L1463.9 -11.32zM1550.51 338.68L1593.81 363.68L1593.81 413.68L1550.51 438.68L1507.21 413.68L1507.21 363.68zM1637.11 188.68L1680.42 213.68L1680.42 263.68L1637.11 288.68L1593.81 263.68L1593.81 213.68zM1680.42 -36.32L1723.72 -11.32L1723.72 38.68L1680.42 63.68L1637.11 38.68L1637.11 -11.32zM1723.72 38.68L1767.02 63.68L1767.02 113.68L1723.72 138.68L1680.42 113.68L1680.42 63.68zM1723.72 488.68L1767.02 513.68L1767.02 563.68L1723.72 588.68L1680.42 563.68L1680.42 513.68zM1810.32 338.68L1853.63 363.68L1853.63 413.68L1810.32 438.68L1767.02 413.68L1767.02 363.68zM1853.63 -36.32L1896.93 -11.32L1896.93 38.68L1853.63 63.68L1810.32 38.68L1810.32 -11.32zM1853.63 113.68L1896.93 138.68L1896.93 188.68L1853.63 213.68L1810.32 188.68L1810.32 138.68zM1896.93 188.68L1940.23 213.68L1940.23 263.68L1896.93 288.68L1853.63 263.68L1853.63 213.68zM1940.23 113.68L1983.53 138.68L1983.53 188.68L1940.23 213.68L1896.93 188.68L1896.93 138.68zM1983.53 188.68L2026.84 213.68L2026.84 263.68L1983.53 288.68L1940.23 263.68L1940.23 213.68zM2026.84 -36.32L2070.14 -11.32L2070.14 38.68L2026.84 63.68L1983.53 38.68L1983.53 -11.32zM2070.14 38.68L2113.44 63.68L2113.44 113.68L2070.14 138.68L2026.84 113.68L2026.84 63.68z" stroke="rgba(6, 80, 156, 0.93)" stroke-width="2"></path></g><defs><mask id="SvgjsMask1004"><rect width="2000" height="560" fill="#ffffff"></rect></mask></defs></svg>