<svg xmlns="http://www.w3.org/2000/svg" version="1.1" xmlns:xlink="http://www.w3.org/1999/xlink" xmlns:svgjs="http://svgjs.dev/svgjs" width="1440" height="560" preserveAspectRatio="none" viewBox="0 0 1440 560"><g mask="url(&quot;#SvgjsMask1054&quot;)" fill="none"><rect width="1440" height="560" x="0" y="0" fill="#0e2a47"></rect><path d="M-62.87 342.16L-62.87 342.16" stroke="#132e65" stroke-width="1.5"></path><path d="M-62.87 342.16L51.96 378.18" stroke="#132e65" stroke-width="1.5"></path><path d="M-62.87 342.16L-68.94 517.01" stroke="#132e65" stroke-width="1.5"></path><path d="M-62.87 342.16L69.47 561.36" stroke="#132e65" stroke-width="1.5"></path><path d="M-62.87 342.16L188.78 394.89" stroke="#132e65" stroke-width="1.5"></path><path d="M-68.94 517.01L-68.94 517.01" stroke="#132e65" stroke-width="1.5"></path><path d="M-68.94 517.01L69.47 561.36" stroke="#132e65" stroke-width="1.5"></path><path d="M-107.23 703.78L-107.23 703.78" stroke="#132e65" stroke-width="1.5"></path><path d="M-107.23 703.78L47.81 712.22" stroke="#132e65" stroke-width="1.5"></path><path d="M-107.23 703.78L-68.94 517.01" stroke="#132e65" stroke-width="1.5"></path><path d="M-107.23 703.78L69.47 561.36" stroke="#132e65" stroke-width="1.5"></path><path d="M-107.23 703.78L208.43 686.71" stroke="#132e65" stroke-width="1.5"></path><path d="M-107.23 703.78L51.96 378.18" stroke="#132e65" stroke-width="1.5"></path><path d="M51.96 378.18L51.96 378.18" stroke="#132e65" stroke-width="1.5"></path><path d="M51.96 378.18L188.78 394.89" stroke="#132e65" stroke-width="1.5"></path><path d="M51.96 378.18L69.47 561.36" stroke="#132e65" stroke-width="1.5"></path><path d="M51.96 378.18L-68.94 517.01" stroke="#132e65" stroke-width="1.5"></path><path d="M69.47 561.36L69.47 561.36" stroke="#132e65" stroke-width="1.5"></path><path d="M69.47 561.36L47.81 712.22" stroke="#132e65" stroke-width="1.5"></path><path d="M69.47 561.36L208.43 686.71" stroke="#132e65" stroke-width="1.5"></path><path d="M69.47 561.36L256.62 506.34" stroke="#132e65" stroke-width="1.5"></path><path d="M69.47 561.36L188.78 394.89" stroke="#132e65" stroke-width="1.5"></path><path d="M47.81 712.22L47.81 712.22" stroke="#132e65" stroke-width="1.5"></path><path d="M188.78 394.89L188.78 394.89" stroke="#132e65" stroke-width="1.5"></path><path d="M188.78 394.89L256.62 506.34" stroke="#132e65" stroke-width="1.5"></path><path d="M256.62 506.34L256.62 506.34" stroke="#132e65" stroke-width="1.5"></path><path d="M256.62 506.34L387.88 514.89" stroke="#132e65" stroke-width="1.5"></path><path d="M256.62 506.34L208.43 686.71" stroke="#132e65" stroke-width="1.5"></path><path d="M208.43 686.71L208.43 686.71" stroke="#132e65" stroke-width="1.5"></path><path d="M208.43 686.71L351.1 711.94" stroke="#132e65" stroke-width="1.5"></path><path d="M208.43 686.71L47.81 712.22" stroke="#132e65" stroke-width="1.5"></path><path d="M208.43 686.71L387.88 514.89" stroke="#132e65" stroke-width="1.5"></path><path d="M208.43 686.71L188.78 394.89" stroke="#132e65" stroke-width="1.5"></path><path d="M387.88 514.89L387.88 514.89" stroke="#132e65" stroke-width="1.5"></path><path d="M387.88 514.89L495.15 516.43" stroke="#132e65" stroke-width="1.5"></path><path d="M387.88 514.89L498.58 358.93" stroke="#132e65" stroke-width="1.5"></path><path d="M351.1 711.94L351.1 711.94" stroke="#132e65" stroke-width="1.5"></path><path d="M351.1 711.94L502.53 669.49" stroke="#132e65" stroke-width="1.5"></path><path d="M351.1 711.94L387.88 514.89" stroke="#132e65" stroke-width="1.5"></path><path d="M351.1 711.94L256.62 506.34" stroke="#132e65" stroke-width="1.5"></path><path d="M351.1 711.94L495.15 516.43" stroke="#132e65" stroke-width="1.5"></path><path d="M498.58 358.93L498.58 358.93" stroke="#132e65" stroke-width="1.5"></path><path d="M498.58 358.93L495.15 516.43" stroke="#132e65" stroke-width="1.5"></path><path d="M495.15 516.43L495.15 516.43" stroke="#132e65" stroke-width="1.5"></path><path d="M495.15 516.43L502.53 669.49" stroke="#132e65" stroke-width="1.5"></path><path d="M495.15 516.43L682.79 517.33" stroke="#132e65" stroke-width="1.5"></path><path d="M495.15 516.43L669.79 651.64" stroke="#132e65" stroke-width="1.5"></path><path d="M495.15 516.43L256.62 506.34" stroke="#132e65" stroke-width="1.5"></path><path d="M502.53 669.49L502.53 669.49" stroke="#132e65" stroke-width="1.5"></path><path d="M502.53 669.49L669.79 651.64" stroke="#132e65" stroke-width="1.5"></path><path d="M502.53 669.49L387.88 514.89" stroke="#132e65" stroke-width="1.5"></path><path d="M682.79 517.33L682.79 517.33" stroke="#132e65" stroke-width="1.5"></path><path d="M682.79 517.33L669.79 651.64" stroke="#132e65" stroke-width="1.5"></path><path d="M682.79 517.33L830.55 534.03" stroke="#132e65" stroke-width="1.5"></path><path d="M669.79 651.64L669.79 651.64" stroke="#132e65" stroke-width="1.5"></path><path d="M835.32 222.54L835.32 222.54" stroke="#132e65" stroke-width="1.5"></path><path d="M835.32 222.54L850.74 371.26" stroke="#132e65" stroke-width="1.5"></path><path d="M835.32 222.54L968.72 386.2" stroke="#132e65" stroke-width="1.5"></path><path d="M835.32 222.54L1091.87 69.57" stroke="#132e65" stroke-width="1.5"></path><path d="M835.32 222.54L1139.86 244.3" stroke="#132e65" stroke-width="1.5"></path><path d="M835.32 222.54L830.55 534.03" stroke="#132e65" stroke-width="1.5"></path><path d="M835.32 222.54L986.47 -51.46" stroke="#132e65" stroke-width="1.5"></path><path d="M850.74 371.26L850.74 371.26" stroke="#132e65" stroke-width="1.5"></path><path d="M850.74 371.26L968.72 386.2" stroke="#132e65" stroke-width="1.5"></path><path d="M850.74 371.26L830.55 534.03" stroke="#132e65" stroke-width="1.5"></path><path d="M850.74 371.26L1005.29 526.71" stroke="#132e65" stroke-width="1.5"></path><path d="M830.55 534.03L830.55 534.03" stroke="#132e65" stroke-width="1.5"></path><path d="M830.55 534.03L855.39 658.96" stroke="#132e65" stroke-width="1.5"></path><path d="M830.55 534.03L1005.29 526.71" stroke="#132e65" stroke-width="1.5"></path><path d="M830.55 534.03L979.32 664" stroke="#132e65" stroke-width="1.5"></path><path d="M830.55 534.03L669.79 651.64" stroke="#132e65" stroke-width="1.5"></path><path d="M855.39 658.96L855.39 658.96" stroke="#132e65" stroke-width="1.5"></path><path d="M855.39 658.96L979.32 664" stroke="#132e65" stroke-width="1.5"></path><path d="M855.39 658.96L669.79 651.64" stroke="#132e65" stroke-width="1.5"></path><path d="M855.39 658.96L1005.29 526.71" stroke="#132e65" stroke-width="1.5"></path><path d="M855.39 658.96L682.79 517.33" stroke="#132e65" stroke-width="1.5"></path><path d="M855.39 658.96L1098.98 676" stroke="#132e65" stroke-width="1.5"></path><path d="M986.47 -51.46L986.47 -51.46" stroke="#132e65" stroke-width="1.5"></path><path d="M986.47 -51.46L1112.49 -59.39" stroke="#132e65" stroke-width="1.5"></path><path d="M986.47 -51.46L1091.87 69.57" stroke="#132e65" stroke-width="1.5"></path><path d="M986.47 -51.46L1250.37 -68.29" stroke="#132e65" stroke-width="1.5"></path><path d="M986.47 -51.46L1244.05 110.97" stroke="#132e65" stroke-width="1.5"></path><path d="M968.72 386.2L968.72 386.2" stroke="#132e65" stroke-width="1.5"></path><path d="M968.72 386.2L1005.29 526.71" stroke="#132e65" stroke-width="1.5"></path><path d="M968.72 386.2L1146.86 386.04" stroke="#132e65" stroke-width="1.5"></path><path d="M968.72 386.2L830.55 534.03" stroke="#132e65" stroke-width="1.5"></path><path d="M1005.29 526.71L1005.29 526.71" stroke="#132e65" stroke-width="1.5"></path><path d="M1005.29 526.71L1123.55 524.06" stroke="#132e65" stroke-width="1.5"></path><path d="M1005.29 526.71L979.32 664" stroke="#132e65" stroke-width="1.5"></path><path d="M1005.29 526.71L1098.98 676" stroke="#132e65" stroke-width="1.5"></path><path d="M1005.29 526.71L1146.86 386.04" stroke="#132e65" stroke-width="1.5"></path><path d="M979.32 664L979.32 664" stroke="#132e65" stroke-width="1.5"></path><path d="M979.32 664L1098.98 676" stroke="#132e65" stroke-width="1.5"></path><path d="M1112.49 -59.39L1112.49 -59.39" stroke="#132e65" stroke-width="1.5"></path><path d="M1112.49 -59.39L1091.87 69.57" stroke="#132e65" stroke-width="1.5"></path><path d="M1112.49 -59.39L1250.37 -68.29" stroke="#132e65" stroke-width="1.5"></path><path d="M1112.49 -59.39L1244.05 110.97" stroke="#132e65" stroke-width="1.5"></path><path d="M1112.49 -59.39L1139.86 244.3" stroke="#132e65" stroke-width="1.5"></path><path d="M1091.87 69.57L1091.87 69.57" stroke="#132e65" stroke-width="1.5"></path><path d="M1139.86 244.3L1139.86 244.3" stroke="#132e65" stroke-width="1.5"></path><path d="M1139.86 244.3L1146.86 386.04" stroke="#132e65" stroke-width="1.5"></path><path d="M1139.86 244.3L1302.1 242.18" stroke="#132e65" stroke-width="1.5"></path><path d="M1139.86 244.3L1244.05 110.97" stroke="#132e65" stroke-width="1.5"></path><path d="M1139.86 244.3L1091.87 69.57" stroke="#132e65" stroke-width="1.5"></path><path d="M1139.86 244.3L1279.68 384.45" stroke="#132e65" stroke-width="1.5"></path><path d="M1146.86 386.04L1146.86 386.04" stroke="#132e65" stroke-width="1.5"></path><path d="M1146.86 386.04L1279.68 384.45" stroke="#132e65" stroke-width="1.5"></path><path d="M1146.86 386.04L1123.55 524.06" stroke="#132e65" stroke-width="1.5"></path><path d="M1146.86 386.04L1277.84 496.09" stroke="#132e65" stroke-width="1.5"></path><path d="M1123.55 524.06L1123.55 524.06" stroke="#132e65" stroke-width="1.5"></path><path d="M1098.98 676L1098.98 676" stroke="#132e65" stroke-width="1.5"></path><path d="M1098.98 676L1241.53 708.89" stroke="#132e65" stroke-width="1.5"></path><path d="M1098.98 676L1123.55 524.06" stroke="#132e65" stroke-width="1.5"></path><path d="M1250.37 -68.29L1250.37 -68.29" stroke="#132e65" stroke-width="1.5"></path><path d="M1250.37 -68.29L1244.05 110.97" stroke="#132e65" stroke-width="1.5"></path><path d="M1250.37 -68.29L1432.47 -75" stroke="#132e65" stroke-width="1.5"></path><path d="M1250.37 -68.29L1091.87 69.57" stroke="#132e65" stroke-width="1.5"></path><path d="M1250.37 -68.29L1444.3 109.55" stroke="#132e65" stroke-width="1.5"></path><path d="M1244.05 110.97L1244.05 110.97" stroke="#132e65" stroke-width="1.5"></path><path d="M1244.05 110.97L1302.1 242.18" stroke="#132e65" stroke-width="1.5"></path><path d="M1244.05 110.97L1091.87 69.57" stroke="#132e65" stroke-width="1.5"></path><path d="M1244.05 110.97L1444.3 109.55" stroke="#132e65" stroke-width="1.5"></path><path d="M1302.1 242.18L1302.1 242.18" stroke="#132e65" stroke-width="1.5"></path><path d="M1302.1 242.18L1279.68 384.45" stroke="#132e65" stroke-width="1.5"></path><path d="M1302.1 242.18L1393.32 353.95" stroke="#132e65" stroke-width="1.5"></path><path d="M1279.68 384.45L1279.68 384.45" stroke="#132e65" stroke-width="1.5"></path><path d="M1279.68 384.45L1277.84 496.09" stroke="#132e65" stroke-width="1.5"></path><path d="M1279.68 384.45L1393.32 353.95" stroke="#132e65" stroke-width="1.5"></path><path d="M1279.68 384.45L1431.02 500.62" stroke="#132e65" stroke-width="1.5"></path><path d="M1277.84 496.09L1277.84 496.09" stroke="#132e65" stroke-width="1.5"></path><path d="M1277.84 496.09L1431.02 500.62" stroke="#132e65" stroke-width="1.5"></path><path d="M1277.84 496.09L1123.55 524.06" stroke="#132e65" stroke-width="1.5"></path><path d="M1277.84 496.09L1393.32 353.95" stroke="#132e65" stroke-width="1.5"></path><path d="M1241.53 708.89L1241.53 708.89" stroke="#132e65" stroke-width="1.5"></path><path d="M1241.53 708.89L1412.5 693.73" stroke="#132e65" stroke-width="1.5"></path><path d="M1241.53 708.89L1277.84 496.09" stroke="#132e65" stroke-width="1.5"></path><path d="M1241.53 708.89L1123.55 524.06" stroke="#132e65" stroke-width="1.5"></path><path d="M1432.47 -75L1432.47 -75" stroke="#132e65" stroke-width="1.5"></path><path d="M1432.47 -75L1559.06 -76.86" stroke="#132e65" stroke-width="1.5"></path><path d="M1432.47 -75L1444.3 109.55" stroke="#132e65" stroke-width="1.5"></path><path d="M1432.47 -75L1591.88 40.82" stroke="#132e65" stroke-width="1.5"></path><path d="M1432.47 -75L1244.05 110.97" stroke="#132e65" stroke-width="1.5"></path><path d="M1444.3 109.55L1444.3 109.55" stroke="#132e65" stroke-width="1.5"></path><path d="M1444.3 109.55L1458.59 228.09" stroke="#132e65" stroke-width="1.5"></path><path d="M1444.3 109.55L1538.3 210.24" stroke="#132e65" stroke-width="1.5"></path><path d="M1458.59 228.09L1458.59 228.09" stroke="#132e65" stroke-width="1.5"></path><path d="M1458.59 228.09L1538.3 210.24" stroke="#132e65" stroke-width="1.5"></path><path d="M1458.59 228.09L1393.32 353.95" stroke="#132e65" stroke-width="1.5"></path><path d="M1393.32 353.95L1393.32 353.95" stroke="#132e65" stroke-width="1.5"></path><path d="M1431.02 500.62L1431.02 500.62" stroke="#132e65" stroke-width="1.5"></path><path d="M1431.02 500.62L1393.32 353.95" stroke="#132e65" stroke-width="1.5"></path><path d="M1412.5 693.73L1412.5 693.73" stroke="#132e65" stroke-width="1.5"></path><path d="M1412.5 693.73L1573.98 681.35" stroke="#132e65" stroke-width="1.5"></path><path d="M1412.5 693.73L1431.02 500.62" stroke="#132e65" stroke-width="1.5"></path><path d="M1412.5 693.73L1277.84 496.09" stroke="#132e65" stroke-width="1.5"></path><path d="M1559.06 -76.86L1559.06 -76.86" stroke="#132e65" stroke-width="1.5"></path><path d="M1559.06 -76.86L1591.88 40.82" stroke="#132e65" stroke-width="1.5"></path><path d="M1559.06 -76.86L1444.3 109.55" stroke="#132e65" stroke-width="1.5"></path><path d="M1559.06 -76.86L1538.3 210.24" stroke="#132e65" stroke-width="1.5"></path><path d="M1559.06 -76.86L1250.37 -68.29" stroke="#132e65" stroke-width="1.5"></path><path d="M1559.06 -76.86L1458.59 228.09" stroke="#132e65" stroke-width="1.5"></path><path d="M1591.88 40.82L1591.88 40.82" stroke="#132e65" stroke-width="1.5"></path><path d="M1538.3 210.24L1538.3 210.24" stroke="#132e65" stroke-width="1.5"></path><path d="M1538.3 210.24L1591.88 40.82" stroke="#132e65" stroke-width="1.5"></path><path d="M1538.3 210.24L1542.49 393.73" stroke="#132e65" stroke-width="1.5"></path><path d="M1538.3 210.24L1393.32 353.95" stroke="#132e65" stroke-width="1.5"></path><path d="M1538.3 210.24L1302.1 242.18" stroke="#132e65" stroke-width="1.5"></path><path d="M1542.49 393.73L1542.49 393.73" stroke="#132e65" stroke-width="1.5"></path><path d="M1542.49 393.73L1583.24 512.01" stroke="#132e65" stroke-width="1.5"></path><path d="M1542.49 393.73L1393.32 353.95" stroke="#132e65" stroke-width="1.5"></path><path d="M1542.49 393.73L1431.02 500.62" stroke="#132e65" stroke-width="1.5"></path><path d="M1542.49 393.73L1458.59 228.09" stroke="#132e65" stroke-width="1.5"></path><path d="M1583.24 512.01L1583.24 512.01" stroke="#132e65" stroke-width="1.5"></path><path d="M1583.24 512.01L1431.02 500.62" stroke="#132e65" stroke-width="1.5"></path><path d="M1583.24 512.01L1573.98 681.35" stroke="#132e65" stroke-width="1.5"></path><path d="M1583.24 512.01L1393.32 353.95" stroke="#132e65" stroke-width="1.5"></path><path d="M1583.24 512.01L1412.5 693.73" stroke="#132e65" stroke-width="1.5"></path><path d="M1573.98 681.35L1573.98 681.35" stroke="#132e65" stroke-width="1.5"></path><circle r="5" cx="-62.87" cy="342.16" fill="#132e65"></circle><circle r="5" cx="-68.94" cy="517.01" fill="#132e65"></circle><circle r="5" cx="-107.23" cy="703.78" fill="#132e65"></circle><circle r="5" cx="51.96" cy="378.18" fill="#132e65"></circle><circle r="5" cx="69.47" cy="561.36" fill="#132e65"></circle><circle r="5" cx="47.81" cy="712.22" fill="#132e65"></circle><circle r="5" cx="188.78" cy="394.89" fill="#132e65"></circle><circle r="5" cx="256.62" cy="506.34" fill="#132e65"></circle><circle r="5" cx="208.43" cy="686.71" fill="#132e65"></circle><circle r="5" cx="387.88" cy="514.89" fill="#132e65"></circle><circle r="5" cx="351.1" cy="711.94" fill="#132e65"></circle><circle r="5" cx="498.58" cy="358.93" fill="#132e65"></circle><circle r="5" cx="495.15" cy="516.43" fill="#132e65"></circle><circle r="5" cx="502.53" cy="669.49" fill="#132e65"></circle><circle r="5" cx="682.79" cy="517.33" fill="#132e65"></circle><circle r="5" cx="669.79" cy="651.64" fill="#132e65"></circle><circle r="5" cx="835.32" cy="222.54" fill="#132e65"></circle><circle r="5" cx="850.74" cy="371.26" fill="#132e65"></circle><circle r="5" cx="830.55" cy="534.03" fill="#132e65"></circle><circle r="5" cx="855.39" cy="658.96" fill="#132e65"></circle><circle r="5" cx="986.47" cy="-51.46" fill="#132e65"></circle><circle r="5" cx="968.72" cy="386.2" fill="#132e65"></circle><circle r="5" cx="1005.29" cy="526.71" fill="#132e65"></circle><circle r="5" cx="979.32" cy="664" fill="#132e65"></circle><circle r="5" cx="1112.49" cy="-59.39" fill="#132e65"></circle><circle r="5" cx="1091.87" cy="69.57" fill="#132e65"></circle><circle r="5" cx="1139.86" cy="244.3" fill="#132e65"></circle><circle r="5" cx="1146.86" cy="386.04" fill="#132e65"></circle><circle r="5" cx="1123.55" cy="524.06" fill="#132e65"></circle><circle r="5" cx="1098.98" cy="676" fill="#132e65"></circle><circle r="5" cx="1250.37" cy="-68.29" fill="#132e65"></circle><circle r="5" cx="1244.05" cy="110.97" fill="#132e65"></circle><circle r="5" cx="1302.1" cy="242.18" fill="#132e65"></circle><circle r="5" cx="1279.68" cy="384.45" fill="#132e65"></circle><circle r="5" cx="1277.84" cy="496.09" fill="#132e65"></circle><circle r="5" cx="1241.53" cy="708.89" fill="#132e65"></circle><circle r="5" cx="1432.47" cy="-75" fill="#132e65"></circle><circle r="5" cx="1444.3" cy="109.55" fill="#132e65"></circle><circle r="5" cx="1458.59" cy="228.09" fill="#132e65"></circle><circle r="5" cx="1393.32" cy="353.95" fill="#132e65"></circle><circle r="5" cx="1431.02" cy="500.62" fill="#132e65"></circle><circle r="5" cx="1412.5" cy="693.73" fill="#132e65"></circle><circle r="5" cx="1559.06" cy="-76.86" fill="#132e65"></circle><circle r="5" cx="1591.88" cy="40.82" fill="#132e65"></circle><circle r="5" cx="1538.3" cy="210.24" fill="#132e65"></circle><circle r="5" cx="1542.49" cy="393.73" fill="#132e65"></circle><circle r="5" cx="1583.24" cy="512.01" fill="#132e65"></circle><circle r="5" cx="1573.98" cy="681.35" fill="#132e65"></circle><path d="M-59.51 686.44L-59.51 686.44" stroke="hsl(228.5, 77.2%, 51.5%)" stroke-width="1.5"></path><path d="M-59.51 686.44L49.92 678.79" stroke="hsl(228.5, 77.2%, 51.5%)" stroke-width="1.5"></path><path d="M-59.51 686.44L-48.42 525.76" stroke="hsl(228.5, 77.2%, 51.5%)" stroke-width="1.5"></path><path d="M-59.51 686.44L109.42 506.58" stroke="hsl(228.5, 77.2%, 51.5%)" stroke-width="1.5"></path><path d="M-59.51 686.44L245.76 665.19" stroke="hsl(228.5, 77.2%, 51.5%)" stroke-width="1.5"></path><path d="M-59.51 686.44L191.07 492.57" stroke="hsl(228.5, 77.2%, 51.5%)" stroke-width="1.5"></path><path d="M848.82 385.83L848.82 385.83" stroke="hsl(228.5, 77.2%, 51.5%)" stroke-width="1.5"></path><path d="M848.82 385.83L708.05 408.53" stroke="hsl(228.5, 77.2%, 51.5%)" stroke-width="1.5"></path><path d="M848.82 385.83L793.7 520.42" stroke="hsl(228.5, 77.2%, 51.5%)" stroke-width="1.5"></path><path d="M848.82 385.83L999.4 362.73" stroke="hsl(228.5, 77.2%, 51.5%)" stroke-width="1.5"></path><path d="M848.82 385.83L1006.61 496.28" stroke="hsl(228.5, 77.2%, 51.5%)" stroke-width="1.5"></path><path d="M848.82 385.83L643.06 538.56" stroke="hsl(228.5, 77.2%, 51.5%)" stroke-width="1.5"></path><path d="M964.4 689.86L964.4 689.86" stroke="hsl(228.5, 77.2%, 51.5%)" stroke-width="1.5"></path><path d="M964.4 689.86L832.95 689.08" stroke="hsl(228.5, 77.2%, 51.5%)" stroke-width="1.5"></path><path d="M964.4 689.86L1139.96 682.78" stroke="hsl(228.5, 77.2%, 51.5%)" stroke-width="1.5"></path><path d="M964.4 689.86L1006.61 496.28" stroke="hsl(228.5, 77.2%, 51.5%)" stroke-width="1.5"></path><path d="M964.4 689.86L793.7 520.42" stroke="hsl(228.5, 77.2%, 51.5%)" stroke-width="1.5"></path><path d="M964.4 689.86L1146.27 498.31" stroke="hsl(228.5, 77.2%, 51.5%)" stroke-width="1.5"></path><path d="M964.4 689.86L848.82 385.83" stroke="hsl(228.5, 77.2%, 51.5%)" stroke-width="1.5"></path><path d="M1133.13 217.25L1133.13 217.25" stroke="hsl(228.5, 77.2%, 51.5%)" stroke-width="1.5"></path><path d="M1133.13 217.25L1241.55 257.42" stroke="hsl(228.5, 77.2%, 51.5%)" stroke-width="1.5"></path><path d="M1133.13 217.25L1118.03 369.3" stroke="hsl(228.5, 77.2%, 51.5%)" stroke-width="1.5"></path><path d="M1133.13 217.25L1154.95 43.57" stroke="hsl(228.5, 77.2%, 51.5%)" stroke-width="1.5"></path><path d="M1133.13 217.25L999.4 362.73" stroke="hsl(228.5, 77.2%, 51.5%)" stroke-width="1.5"></path><path d="M1146.27 498.31L1146.27 498.31" stroke="hsl(228.5, 77.2%, 51.5%)" stroke-width="1.5"></path><path d="M1146.27 498.31L1118.03 369.3" stroke="hsl(228.5, 77.2%, 51.5%)" stroke-width="1.5"></path><path d="M1146.27 498.31L1006.61 496.28" stroke="hsl(228.5, 77.2%, 51.5%)" stroke-width="1.5"></path><path d="M1146.27 498.31L1272.96 382.23" stroke="hsl(228.5, 77.2%, 51.5%)" stroke-width="1.5"></path><path d="M1146.27 498.31L1139.96 682.78" stroke="hsl(228.5, 77.2%, 51.5%)" stroke-width="1.5"></path><path d="M1146.27 498.31L999.4 362.73" stroke="hsl(228.5, 77.2%, 51.5%)" stroke-width="1.5"></path><path d="M1146.27 498.31L1291.51 707.64" stroke="hsl(228.5, 77.2%, 51.5%)" stroke-width="1.5"></path><path d="M-48.42 525.76L-48.42 525.76" stroke="hsl(228.5, 77.2%, 51.5%)" stroke-width="1.5"></path><path d="M-48.42 525.76L109.42 506.58" stroke="hsl(228.5, 77.2%, 51.5%)" stroke-width="1.5"></path><path d="M-48.42 525.76L49.92 678.79" stroke="hsl(228.5, 77.2%, 51.5%)" stroke-width="1.5"></path><path d="M-48.42 525.76L191.07 492.57" stroke="hsl(228.5, 77.2%, 51.5%)" stroke-width="1.5"></path><path d="M-48.42 525.76L245.76 665.19" stroke="hsl(228.5, 77.2%, 51.5%)" stroke-width="1.5"></path><path d="M-48.42 525.76L407.96 699.92" stroke="hsl(228.5, 77.2%, 51.5%)" stroke-width="1.5"></path><path d="M109.42 506.58L109.42 506.58" stroke="hsl(228.5, 77.2%, 51.5%)" stroke-width="1.5"></path><path d="M109.42 506.58L191.07 492.57" stroke="hsl(228.5, 77.2%, 51.5%)" stroke-width="1.5"></path><path d="M109.42 506.58L49.92 678.79" stroke="hsl(228.5, 77.2%, 51.5%)" stroke-width="1.5"></path><path d="M109.42 506.58L245.76 665.19" stroke="hsl(228.5, 77.2%, 51.5%)" stroke-width="1.5"></path><path d="M49.92 678.79L49.92 678.79" stroke="hsl(228.5, 77.2%, 51.5%)" stroke-width="1.5"></path><path d="M49.92 678.79L245.76 665.19" stroke="hsl(228.5, 77.2%, 51.5%)" stroke-width="1.5"></path><path d="M191.07 492.57L191.07 492.57" stroke="hsl(228.5, 77.2%, 51.5%)" stroke-width="1.5"></path><path d="M191.07 492.57L245.76 665.19" stroke="hsl(228.5, 77.2%, 51.5%)" stroke-width="1.5"></path><path d="M191.07 492.57L49.92 678.79" stroke="hsl(228.5, 77.2%, 51.5%)" stroke-width="1.5"></path><path d="M191.07 492.57L407.96 699.92" stroke="hsl(228.5, 77.2%, 51.5%)" stroke-width="1.5"></path><path d="M245.76 665.19L245.76 665.19" stroke="hsl(228.5, 77.2%, 51.5%)" stroke-width="1.5"></path><path d="M245.76 665.19L407.96 699.92" stroke="hsl(228.5, 77.2%, 51.5%)" stroke-width="1.5"></path><path d="M407.96 699.92L407.96 699.92" stroke="hsl(228.5, 77.2%, 51.5%)" stroke-width="1.5"></path><path d="M407.96 699.92L546.89 654.02" stroke="hsl(228.5, 77.2%, 51.5%)" stroke-width="1.5"></path><path d="M498.54 496.18L498.54 496.18" stroke="hsl(228.5, 77.2%, 51.5%)" stroke-width="1.5"></path><path d="M498.54 496.18L643.06 538.56" stroke="hsl(228.5, 77.2%, 51.5%)" stroke-width="1.5"></path><path d="M498.54 496.18L546.89 654.02" stroke="hsl(228.5, 77.2%, 51.5%)" stroke-width="1.5"></path><path d="M546.89 654.02L546.89 654.02" stroke="hsl(228.5, 77.2%, 51.5%)" stroke-width="1.5"></path><path d="M546.89 654.02L638.57 670.63" stroke="hsl(228.5, 77.2%, 51.5%)" stroke-width="1.5"></path><path d="M546.89 654.02L643.06 538.56" stroke="hsl(228.5, 77.2%, 51.5%)" stroke-width="1.5"></path><path d="M708.05 408.53L708.05 408.53" stroke="hsl(228.5, 77.2%, 51.5%)" stroke-width="1.5"></path><path d="M708.05 408.53L793.7 520.42" stroke="hsl(228.5, 77.2%, 51.5%)" stroke-width="1.5"></path><path d="M643.06 538.56L643.06 538.56" stroke="hsl(228.5, 77.2%, 51.5%)" stroke-width="1.5"></path><path d="M643.06 538.56L638.57 670.63" stroke="hsl(228.5, 77.2%, 51.5%)" stroke-width="1.5"></path><path d="M643.06 538.56L708.05 408.53" stroke="hsl(228.5, 77.2%, 51.5%)" stroke-width="1.5"></path><path d="M638.57 670.63L638.57 670.63" stroke="hsl(228.5, 77.2%, 51.5%)" stroke-width="1.5"></path><path d="M638.57 670.63L832.95 689.08" stroke="hsl(228.5, 77.2%, 51.5%)" stroke-width="1.5"></path><path d="M638.57 670.63L793.7 520.42" stroke="hsl(228.5, 77.2%, 51.5%)" stroke-width="1.5"></path><path d="M638.57 670.63L498.54 496.18" stroke="hsl(228.5, 77.2%, 51.5%)" stroke-width="1.5"></path><path d="M793.7 520.42L793.7 520.42" stroke="hsl(228.5, 77.2%, 51.5%)" stroke-width="1.5"></path><path d="M793.7 520.42L643.06 538.56" stroke="hsl(228.5, 77.2%, 51.5%)" stroke-width="1.5"></path><path d="M793.7 520.42L832.95 689.08" stroke="hsl(228.5, 77.2%, 51.5%)" stroke-width="1.5"></path><path d="M793.7 520.42L1006.61 496.28" stroke="hsl(228.5, 77.2%, 51.5%)" stroke-width="1.5"></path><path d="M832.95 689.08L832.95 689.08" stroke="hsl(228.5, 77.2%, 51.5%)" stroke-width="1.5"></path><path d="M999.4 362.73L999.4 362.73" stroke="hsl(228.5, 77.2%, 51.5%)" stroke-width="1.5"></path><path d="M999.4 362.73L1118.03 369.3" stroke="hsl(228.5, 77.2%, 51.5%)" stroke-width="1.5"></path><path d="M999.4 362.73L1006.61 496.28" stroke="hsl(228.5, 77.2%, 51.5%)" stroke-width="1.5"></path><path d="M1006.61 496.28L1006.61 496.28" stroke="hsl(228.5, 77.2%, 51.5%)" stroke-width="1.5"></path><path d="M1006.61 496.28L1118.03 369.3" stroke="hsl(228.5, 77.2%, 51.5%)" stroke-width="1.5"></path><path d="M1160.25 -88.35L1160.25 -88.35" stroke="hsl(228.5, 77.2%, 51.5%)" stroke-width="1.5"></path><path d="M1160.25 -88.35L1267.65 -37.9" stroke="hsl(228.5, 77.2%, 51.5%)" stroke-width="1.5"></path><path d="M1160.25 -88.35L1154.95 43.57" stroke="hsl(228.5, 77.2%, 51.5%)" stroke-width="1.5"></path><path d="M1160.25 -88.35L1446.25 -109.44" stroke="hsl(228.5, 77.2%, 51.5%)" stroke-width="1.5"></path><path d="M1160.25 -88.35L1407.59 87.49" stroke="hsl(228.5, 77.2%, 51.5%)" stroke-width="1.5"></path><path d="M1154.95 43.57L1154.95 43.57" stroke="hsl(228.5, 77.2%, 51.5%)" stroke-width="1.5"></path><path d="M1154.95 43.57L1267.65 -37.9" stroke="hsl(228.5, 77.2%, 51.5%)" stroke-width="1.5"></path><path d="M1118.03 369.3L1118.03 369.3" stroke="hsl(228.5, 77.2%, 51.5%)" stroke-width="1.5"></path><path d="M1118.03 369.3L1272.96 382.23" stroke="hsl(228.5, 77.2%, 51.5%)" stroke-width="1.5"></path><path d="M1118.03 369.3L1241.55 257.42" stroke="hsl(228.5, 77.2%, 51.5%)" stroke-width="1.5"></path><path d="M1139.96 682.78L1139.96 682.78" stroke="hsl(228.5, 77.2%, 51.5%)" stroke-width="1.5"></path><path d="M1139.96 682.78L1291.51 707.64" stroke="hsl(228.5, 77.2%, 51.5%)" stroke-width="1.5"></path><path d="M1267.65 -37.9L1267.65 -37.9" stroke="hsl(228.5, 77.2%, 51.5%)" stroke-width="1.5"></path><path d="M1267.65 -37.9L1407.59 87.49" stroke="hsl(228.5, 77.2%, 51.5%)" stroke-width="1.5"></path><path d="M1267.65 -37.9L1446.25 -109.44" stroke="hsl(228.5, 77.2%, 51.5%)" stroke-width="1.5"></path><path d="M1267.65 -37.9L1133.13 217.25" stroke="hsl(228.5, 77.2%, 51.5%)" stroke-width="1.5"></path><path d="M1267.65 -37.9L1241.55 257.42" stroke="hsl(228.5, 77.2%, 51.5%)" stroke-width="1.5"></path><path d="M1241.55 257.42L1241.55 257.42" stroke="hsl(228.5, 77.2%, 51.5%)" stroke-width="1.5"></path><path d="M1241.55 257.42L1272.96 382.23" stroke="hsl(228.5, 77.2%, 51.5%)" stroke-width="1.5"></path><path d="M1241.55 257.42L1404.3 238.79" stroke="hsl(228.5, 77.2%, 51.5%)" stroke-width="1.5"></path><path d="M1272.96 382.23L1272.96 382.23" stroke="hsl(228.5, 77.2%, 51.5%)" stroke-width="1.5"></path><path d="M1291.51 707.64L1291.51 707.64" stroke="hsl(228.5, 77.2%, 51.5%)" stroke-width="1.5"></path><path d="M1291.51 707.64L1392.3 673.2" stroke="hsl(228.5, 77.2%, 51.5%)" stroke-width="1.5"></path><path d="M1291.51 707.64L1431.81 559.67" stroke="hsl(228.5, 77.2%, 51.5%)" stroke-width="1.5"></path><path d="M1446.25 -109.44L1446.25 -109.44" stroke="hsl(228.5, 77.2%, 51.5%)" stroke-width="1.5"></path><path d="M1446.25 -109.44L1581.12 -78.04" stroke="hsl(228.5, 77.2%, 51.5%)" stroke-width="1.5"></path><path d="M1407.59 87.49L1407.59 87.49" stroke="hsl(228.5, 77.2%, 51.5%)" stroke-width="1.5"></path><path d="M1407.59 87.49L1404.3 238.79" stroke="hsl(228.5, 77.2%, 51.5%)" stroke-width="1.5"></path><path d="M1407.59 87.49L1574.43 81.55" stroke="hsl(228.5, 77.2%, 51.5%)" stroke-width="1.5"></path><path d="M1407.59 87.49L1546.94 199.71" stroke="hsl(228.5, 77.2%, 51.5%)" stroke-width="1.5"></path><path d="M1404.3 238.79L1404.3 238.79" stroke="hsl(228.5, 77.2%, 51.5%)" stroke-width="1.5"></path><path d="M1404.3 238.79L1453.54 362.73" stroke="hsl(228.5, 77.2%, 51.5%)" stroke-width="1.5"></path><path d="M1404.3 238.79L1546.94 199.71" stroke="hsl(228.5, 77.2%, 51.5%)" stroke-width="1.5"></path><path d="M1453.54 362.73L1453.54 362.73" stroke="hsl(228.5, 77.2%, 51.5%)" stroke-width="1.5"></path><path d="M1453.54 362.73L1272.96 382.23" stroke="hsl(228.5, 77.2%, 51.5%)" stroke-width="1.5"></path><path d="M1453.54 362.73L1546.94 199.71" stroke="hsl(228.5, 77.2%, 51.5%)" stroke-width="1.5"></path><path d="M1453.54 362.73L1431.81 559.67" stroke="hsl(228.5, 77.2%, 51.5%)" stroke-width="1.5"></path><path d="M1431.81 559.67L1431.81 559.67" stroke="hsl(228.5, 77.2%, 51.5%)" stroke-width="1.5"></path><path d="M1431.81 559.67L1392.3 673.2" stroke="hsl(228.5, 77.2%, 51.5%)" stroke-width="1.5"></path><path d="M1431.81 559.67L1588.45 516.43" stroke="hsl(228.5, 77.2%, 51.5%)" stroke-width="1.5"></path><path d="M1431.81 559.67L1573.31 675.11" stroke="hsl(228.5, 77.2%, 51.5%)" stroke-width="1.5"></path><path d="M1431.81 559.67L1272.96 382.23" stroke="hsl(228.5, 77.2%, 51.5%)" stroke-width="1.5"></path><path d="M1392.3 673.2L1392.3 673.2" stroke="hsl(228.5, 77.2%, 51.5%)" stroke-width="1.5"></path><path d="M1581.12 -78.04L1581.12 -78.04" stroke="hsl(228.5, 77.2%, 51.5%)" stroke-width="1.5"></path><path d="M1581.12 -78.04L1574.43 81.55" stroke="hsl(228.5, 77.2%, 51.5%)" stroke-width="1.5"></path><path d="M1581.12 -78.04L1407.59 87.49" stroke="hsl(228.5, 77.2%, 51.5%)" stroke-width="1.5"></path><path d="M1581.12 -78.04L1546.94 199.71" stroke="hsl(228.5, 77.2%, 51.5%)" stroke-width="1.5"></path><path d="M1574.43 81.55L1574.43 81.55" stroke="hsl(228.5, 77.2%, 51.5%)" stroke-width="1.5"></path><path d="M1574.43 81.55L1546.94 199.71" stroke="hsl(228.5, 77.2%, 51.5%)" stroke-width="1.5"></path><path d="M1546.94 199.71L1546.94 199.71" stroke="hsl(228.5, 77.2%, 51.5%)" stroke-width="1.5"></path><path d="M1546.94 199.71L1241.55 257.42" stroke="hsl(228.5, 77.2%, 51.5%)" stroke-width="1.5"></path><path d="M1588.45 516.43L1588.45 516.43" stroke="hsl(228.5, 77.2%, 51.5%)" stroke-width="1.5"></path><path d="M1588.45 516.43L1573.31 675.11" stroke="hsl(228.5, 77.2%, 51.5%)" stroke-width="1.5"></path><path d="M1588.45 516.43L1453.54 362.73" stroke="hsl(228.5, 77.2%, 51.5%)" stroke-width="1.5"></path><path d="M1573.31 675.11L1573.31 675.11" stroke="hsl(228.5, 77.2%, 51.5%)" stroke-width="1.5"></path><path d="M1573.31 675.11L1392.3 673.2" stroke="hsl(228.5, 77.2%, 51.5%)" stroke-width="1.5"></path><circle r="25" cx="-59.51" cy="686.44" fill="url(&quot;#SvgjsRadialGradient1055&quot;)"></circle><circle r="25" cx="848.82" cy="385.83" fill="url(&quot;#SvgjsRadialGradient1055&quot;)"></circle><circle r="25" cx="964.4" cy="689.86" fill="url(&quot;#SvgjsRadialGradient1055&quot;)"></circle><circle r="25" cx="1133.13" cy="217.25" fill="url(&quot;#SvgjsRadialGradient1055&quot;)"></circle><circle r="25" cx="1146.27" cy="498.31" fill="url(&quot;#SvgjsRadialGradient1055&quot;)"></circle><circle r="5" cx="-48.42" cy="525.76" fill="#8b9ad9"></circle><circle r="5" cx="109.42" cy="506.58" fill="#8b9ad9"></circle><circle r="5" cx="49.92" cy="678.79" fill="#8b9ad9"></circle><circle r="5" cx="191.07" cy="492.57" fill="#8b9ad9"></circle><circle r="5" cx="245.76" cy="665.19" fill="#8b9ad9"></circle><circle r="5" cx="407.96" cy="699.92" fill="#8b9ad9"></circle><circle r="5" cx="498.54" cy="496.18" fill="#8b9ad9"></circle><circle r="5" cx="546.89" cy="654.02" fill="#8b9ad9"></circle><circle r="5" cx="708.05" cy="408.53" fill="#8b9ad9"></circle><circle r="5" cx="643.06" cy="538.56" fill="#8b9ad9"></circle><circle r="5" cx="638.57" cy="670.63" fill="#8b9ad9"></circle><circle r="5" cx="793.7" cy="520.42" fill="#8b9ad9"></circle><circle r="5" cx="832.95" cy="689.08" fill="#8b9ad9"></circle><circle r="5" cx="999.4" cy="362.73" fill="#8b9ad9"></circle><circle r="5" cx="1006.61" cy="496.28" fill="#8b9ad9"></circle><circle r="5" cx="1160.25" cy="-88.35" fill="#8b9ad9"></circle><circle r="5" cx="1154.95" cy="43.57" fill="#8b9ad9"></circle><circle r="5" cx="1118.03" cy="369.3" fill="#8b9ad9"></circle><circle r="5" cx="1139.96" cy="682.78" fill="#8b9ad9"></circle><circle r="5" cx="1267.65" cy="-37.9" fill="#8b9ad9"></circle><circle r="5" cx="1241.55" cy="257.42" fill="#8b9ad9"></circle><circle r="5" cx="1272.96" cy="382.23" fill="#8b9ad9"></circle><circle r="5" cx="1291.51" cy="707.64" fill="#8b9ad9"></circle><circle r="5" cx="1446.25" cy="-109.44" fill="#8b9ad9"></circle><circle r="5" cx="1407.59" cy="87.49" fill="#8b9ad9"></circle><circle r="5" cx="1404.3" cy="238.79" fill="#8b9ad9"></circle><circle r="5" cx="1453.54" cy="362.73" fill="#8b9ad9"></circle><circle r="5" cx="1431.81" cy="559.67" fill="#8b9ad9"></circle><circle r="5" cx="1392.3" cy="673.2" fill="#8b9ad9"></circle><circle r="5" cx="1581.12" cy="-78.04" fill="#8b9ad9"></circle><circle r="5" cx="1574.43" cy="81.55" fill="#8b9ad9"></circle><circle r="5" cx="1546.94" cy="199.71" fill="#8b9ad9"></circle><circle r="5" cx="1588.45" cy="516.43" fill="#8b9ad9"></circle><circle r="5" cx="1573.31" cy="675.11" fill="#8b9ad9"></circle></g><defs><mask id="SvgjsMask1054"><rect width="1440" height="560" fill="#ffffff"></rect></mask><radialGradient id="SvgjsRadialGradient1055"><stop stop-color="#ffffff" offset="0.1"></stop><stop stop-color="#1735b3" offset="0.2"></stop><stop stop-color="rgba(23, 53, 179, 0)" offset="1"></stop></radialGradient></defs></svg>