<?xml version="1.0" encoding="iso-8859-1"?>
<!-- Uploaded to: SVG Repo, www.svgrepo.com, Generator: SVG Repo Mixer Tools -->
<svg fill="#000000" height="800px" width="800px" version="1.1" id="Layer_1" xmlns="http://www.w3.org/2000/svg" xmlns:xlink="http://www.w3.org/1999/xlink" 
	 viewBox="0 0 512 512" xml:space="preserve">
<g>
	<g>
		<path d="M375.07,259.274c-20.686,0-41.078,4.694-59.562,13.62c-18.005-8.724-38.195-13.62-59.508-13.62
			c-21.312,0-41.503,4.896-59.509,13.62c-18.483-8.928-38.875-13.62-59.561-13.62C61.427,259.274,0,320.701,0,396.205
			c0,9.864,7.997,17.86,17.86,17.86h119.07H238.14v5.953c0,9.864,7.997,17.86,17.86,17.86c9.864,0,17.86-7.997,17.86-17.86v-5.953
			H375.07h119.07c9.864,0,17.86-7.997,17.86-17.86C512,320.701,450.573,259.274,375.07,259.274z M120.234,378.344H37.299
			c8.461-47.317,49.918-83.349,99.632-83.349c8.088,0,16.112,0.976,23.897,2.861C139.134,318.856,124.342,346.942,120.234,378.344z
			 M238.14,378.344h-81.771c7.424-41.517,40.253-74.34,81.771-81.764V378.344z M273.861,378.344V296.58
			c41.518,7.424,74.347,40.246,81.771,81.764H273.861z M391.766,378.344c-4.109-31.402-18.9-59.487-40.593-80.488
			c7.786-1.885,15.809-2.861,23.897-2.861c49.713,0,91.171,36.032,99.632,83.349H391.766z"/>
	</g>
</g>
<g>
	<g>
		<path d="M375.07,74.121c-24.277,0-45.879,11.645-59.535,29.635C301.879,85.766,280.277,74.121,256,74.121
			s-45.879,11.645-59.535,29.635c-13.656-17.99-35.258-29.635-59.535-29.635c-41.199,0-74.716,33.517-74.716,74.716
			s33.517,74.716,74.716,74.716c24.277,0,45.879-11.645,59.535-29.635c13.656,17.99,35.258,29.635,59.535,29.635
			s45.879-11.645,59.535-29.635c13.656,17.99,35.258,29.635,59.535,29.635c41.199,0,74.716-33.517,74.716-74.716
			S416.269,74.121,375.07,74.121z M136.93,187.833c-21.503,0-38.995-17.493-38.995-38.995s17.493-38.995,38.995-38.995
			s38.995,17.493,38.995,38.995S158.433,187.833,136.93,187.833z M256,187.833c-21.503,0-38.995-17.493-38.995-38.995
			s17.493-38.995,38.995-38.995s38.995,17.493,38.995,38.995S277.503,187.833,256,187.833z M375.07,187.833
			c-21.503,0-38.995-17.493-38.995-38.995s17.493-38.995,38.995-38.995s38.995,17.493,38.995,38.995S396.573,187.833,375.07,187.833
			z"/>
	</g>
</g>
</svg>