<svg width="800" height="219" viewBox="0 0 800 219" fill="none" xmlns="http://www.w3.org/2000/svg">
<path fill-rule="evenodd" clip-rule="evenodd" d="M387 126C392.523 126 397 121.523 397 116V1.5C397 0.671573 397.672 0 398.5 0V0C399.328 0 400 0.671575 400 1.5V116C400 121.523 404.477 126 410 126H797C798.657 126 800 127.343 800 129V129V217.5C800 218.328 799.328 219 798.5 219V219C797.672 219 797 218.328 797 217.5V139C797 133.477 792.523 129 787 129H410C404.477 129 400 133.477 400 139V217.5C400 218.328 399.328 219 398.5 219V219C397.672 219 397 218.328 397 217.5V139C397 133.477 392.523 129 387 129H13C7.47715 129 3 133.477 3 139V217.5C3 218.328 2.32843 219 1.5 219V219C0.671573 219 0 218.328 0 217.5V129V129C0 127.343 1.34315 126 3 126H387Z" fill="white"/>
</svg>
