<svg xmlns="http://www.w3.org/2000/svg" version="1.1" xmlns:xlink="http://www.w3.org/1999/xlink" xmlns:svgjs="http://svgjs.dev/svgjs" width="1440" height="560" preserveAspectRatio="none" viewBox="0 0 1440 560"><g mask="url(&quot;#SvgjsMask1000&quot;)" fill="none"><rect width="1440" height="560" x="0" y="0" fill="#0e2a47"></rect><path d="M -31.920871354714563,267 C 64.08,287.8 256.08,404.2 448.07912864528544,371 C 640.08,337.8 736.08,94.6 928.0791286452854,101 C 1120.08,107.4 1216.08,403.2 1408.0791286452854,403 C 1600.08,402.8 1881.69,91.8 1888.0791286452854,100 C 1894.46,108.2 1529.62,375.2 1440,444" stroke="rgba(51, 121, 194, 0.58)" stroke-width="2"></path><path d="M -738.6023921539147,493 C -642.6,413.6 -450.6,115.6 -258.60239215391465,96 C -66.6,76.4 29.4,377 221.39760784608535,395 C 413.4,413 509.4,188.6 701.3976078460853,186 C 893.4,183.4 1033.68,376.4 1181.3976078460853,382 C 1329.12,387.6 1388.28,247.6 1440,214" stroke="rgba(51, 121, 194, 0.58)" stroke-width="2"></path><path d="M -34.730905066338266,290 C 61.27,244.6 253.27,39 445.26909493366173,63 C 637.27,87 733.27,410.8 925.2690949336618,410 C 1117.27,409.2 1213.27,46.4 1405.2690949336618,59 C 1597.27,71.6 1878.32,432.4 1885.2690949336618,473 C 1892.22,513.6 1529.05,304.2 1440,262" stroke="rgba(51, 121, 194, 0.58)" stroke-width="2"></path><path d="M -862.8073396221532,487 C -766.81,409.8 -574.81,99.6 -382.8073396221533,101 C -190.81,102.4 -94.81,485.6 97.19266037784672,494 C 289.19,502.4 385.19,161.4 577.1926603778468,143 C 769.19,124.6 884.63,403 1057.1926603778468,402 C 1229.75,401 1363.44,190.8 1440,138" stroke="rgba(51, 121, 194, 0.58)" stroke-width="2"></path></g><defs><mask id="SvgjsMask1000"><rect width="1440" height="560" fill="#ffffff"></rect></mask></defs></svg>